<mxfile host="app.diagrams.net" modified="2023-04-18T16:21:22.012Z" agent="Mozilla/5.0 (Windows NT 10.0; Win64; x64) AppleWebKit/537.36 (KHTML, like Gecko) Chrome/111.0.0.0 Safari/537.36 OPR/97.0.0.0" etag="DdkvE9HFMAOm7JW3AMJ5" version="21.1.5" type="github">
  <diagram name="Página-1" id="4-gzDsOgcf79sOpH9Bft">
    <mxGraphModel dx="1199" dy="637" grid="1" gridSize="10" guides="1" tooltips="1" connect="1" arrows="1" fold="1" page="1" pageScale="1" pageWidth="1169" pageHeight="827" math="0" shadow="0">
      <root>
        <mxCell id="0" />
        <mxCell id="1" parent="0" />
        <mxCell id="FMgXJBMxYUzyo6VC3O0s-1" value="Cadastro" style="swimlane;fontStyle=1;align=center;verticalAlign=top;childLayout=stackLayout;horizontal=1;startSize=30;horizontalStack=0;resizeParent=1;resizeParentMax=0;resizeLast=0;collapsible=1;marginBottom=0;whiteSpace=wrap;html=1;" parent="1" vertex="1">
          <mxGeometry x="50" y="40" width="160" height="170" as="geometry" />
        </mxCell>
        <mxCell id="FMgXJBMxYUzyo6VC3O0s-2" value="- Nome: String&lt;br&gt;- cpf : long&lt;br&gt;- Endereço: String&lt;br&gt;- Telefone: String&lt;br&gt;- login: String&lt;br&gt;- senha: String" style="text;strokeColor=none;fillColor=none;align=left;verticalAlign=top;spacingLeft=4;spacingRight=4;overflow=hidden;rotatable=0;points=[[0,0.5],[1,0.5]];portConstraint=eastwest;whiteSpace=wrap;html=1;" parent="FMgXJBMxYUzyo6VC3O0s-1" vertex="1">
          <mxGeometry y="30" width="160" height="100" as="geometry" />
        </mxCell>
        <mxCell id="FMgXJBMxYUzyo6VC3O0s-3" value="" style="line;strokeWidth=1;fillColor=none;align=left;verticalAlign=middle;spacingTop=-1;spacingLeft=3;spacingRight=3;rotatable=0;labelPosition=right;points=[];portConstraint=eastwest;strokeColor=inherit;" parent="FMgXJBMxYUzyo6VC3O0s-1" vertex="1">
          <mxGeometry y="130" width="160" height="8" as="geometry" />
        </mxCell>
        <mxCell id="FMgXJBMxYUzyo6VC3O0s-4" value="+&amp;nbsp; cadastrar();" style="text;strokeColor=none;fillColor=none;align=left;verticalAlign=top;spacingLeft=4;spacingRight=4;overflow=hidden;rotatable=0;points=[[0,0.5],[1,0.5]];portConstraint=eastwest;whiteSpace=wrap;html=1;" parent="FMgXJBMxYUzyo6VC3O0s-1" vertex="1">
          <mxGeometry y="138" width="160" height="32" as="geometry" />
        </mxCell>
        <mxCell id="FMgXJBMxYUzyo6VC3O0s-9" value="Cliente" style="swimlane;fontStyle=1;align=center;verticalAlign=top;childLayout=stackLayout;horizontal=1;startSize=26;horizontalStack=0;resizeParent=1;resizeParentMax=0;resizeLast=0;collapsible=1;marginBottom=0;whiteSpace=wrap;html=1;" parent="1" vertex="1">
          <mxGeometry x="50" y="313" width="160" height="96" as="geometry" />
        </mxCell>
        <mxCell id="FMgXJBMxYUzyo6VC3O0s-11" value="" style="line;strokeWidth=1;fillColor=none;align=left;verticalAlign=middle;spacingTop=-1;spacingLeft=3;spacingRight=3;rotatable=0;labelPosition=right;points=[];portConstraint=eastwest;strokeColor=inherit;" parent="FMgXJBMxYUzyo6VC3O0s-9" vertex="1">
          <mxGeometry y="26" width="160" height="8" as="geometry" />
        </mxCell>
        <mxCell id="FMgXJBMxYUzyo6VC3O0s-12" value="+ cadastrar();&lt;br&gt;+ consultar();&lt;br&gt;+ acessarConta();" style="text;strokeColor=none;fillColor=none;align=left;verticalAlign=top;spacingLeft=4;spacingRight=4;overflow=hidden;rotatable=0;points=[[0,0.5],[1,0.5]];portConstraint=eastwest;whiteSpace=wrap;html=1;" parent="FMgXJBMxYUzyo6VC3O0s-9" vertex="1">
          <mxGeometry y="34" width="160" height="62" as="geometry" />
        </mxCell>
        <mxCell id="FMgXJBMxYUzyo6VC3O0s-13" value="Banco" style="swimlane;fontStyle=1;align=center;verticalAlign=top;childLayout=stackLayout;horizontal=1;startSize=26;horizontalStack=0;resizeParent=1;resizeParentMax=0;resizeLast=0;collapsible=1;marginBottom=0;whiteSpace=wrap;html=1;" parent="1" vertex="1">
          <mxGeometry x="317" y="100" width="160" height="140" as="geometry" />
        </mxCell>
        <mxCell id="FMgXJBMxYUzyo6VC3O0s-14" value="+ Nome;&lt;br&gt;+ nBanco;&lt;br&gt;+ nAgencia;&lt;br&gt;+ Endereco;" style="text;strokeColor=none;fillColor=none;align=left;verticalAlign=top;spacingLeft=4;spacingRight=4;overflow=hidden;rotatable=0;points=[[0,0.5],[1,0.5]];portConstraint=eastwest;whiteSpace=wrap;html=1;" parent="FMgXJBMxYUzyo6VC3O0s-13" vertex="1">
          <mxGeometry y="26" width="160" height="74" as="geometry" />
        </mxCell>
        <mxCell id="FMgXJBMxYUzyo6VC3O0s-15" value="" style="line;strokeWidth=1;fillColor=none;align=left;verticalAlign=middle;spacingTop=-1;spacingLeft=3;spacingRight=3;rotatable=0;labelPosition=right;points=[];portConstraint=eastwest;strokeColor=inherit;" parent="FMgXJBMxYUzyo6VC3O0s-13" vertex="1">
          <mxGeometry y="100" width="160" height="8" as="geometry" />
        </mxCell>
        <mxCell id="FMgXJBMxYUzyo6VC3O0s-16" value="+ consultar();" style="text;strokeColor=none;fillColor=none;align=left;verticalAlign=top;spacingLeft=4;spacingRight=4;overflow=hidden;rotatable=0;points=[[0,0.5],[1,0.5]];portConstraint=eastwest;whiteSpace=wrap;html=1;" parent="FMgXJBMxYUzyo6VC3O0s-13" vertex="1">
          <mxGeometry y="108" width="160" height="32" as="geometry" />
        </mxCell>
        <mxCell id="FMgXJBMxYUzyo6VC3O0s-17" value="Conta" style="swimlane;fontStyle=1;align=center;verticalAlign=top;childLayout=stackLayout;horizontal=1;startSize=26;horizontalStack=0;resizeParent=1;resizeParentMax=0;resizeLast=0;collapsible=1;marginBottom=0;whiteSpace=wrap;html=1;" parent="1" vertex="1">
          <mxGeometry x="287" y="310" width="220" height="104" as="geometry" />
        </mxCell>
        <mxCell id="FMgXJBMxYUzyo6VC3O0s-18" value="+ nConta;" style="text;strokeColor=none;fillColor=none;align=left;verticalAlign=top;spacingLeft=4;spacingRight=4;overflow=hidden;rotatable=0;points=[[0,0.5],[1,0.5]];portConstraint=eastwest;whiteSpace=wrap;html=1;" parent="FMgXJBMxYUzyo6VC3O0s-17" vertex="1">
          <mxGeometry y="26" width="220" height="44" as="geometry" />
        </mxCell>
        <mxCell id="FMgXJBMxYUzyo6VC3O0s-19" value="" style="line;strokeWidth=1;fillColor=none;align=left;verticalAlign=middle;spacingTop=-1;spacingLeft=3;spacingRight=3;rotatable=0;labelPosition=right;points=[];portConstraint=eastwest;strokeColor=inherit;" parent="FMgXJBMxYUzyo6VC3O0s-17" vertex="1">
          <mxGeometry y="70" width="220" height="8" as="geometry" />
        </mxCell>
        <mxCell id="FMgXJBMxYUzyo6VC3O0s-20" value="+ logar();" style="text;strokeColor=none;fillColor=none;align=left;verticalAlign=top;spacingLeft=4;spacingRight=4;overflow=hidden;rotatable=0;points=[[0,0.5],[1,0.5]];portConstraint=eastwest;whiteSpace=wrap;html=1;" parent="FMgXJBMxYUzyo6VC3O0s-17" vertex="1">
          <mxGeometry y="78" width="220" height="26" as="geometry" />
        </mxCell>
        <mxCell id="FMgXJBMxYUzyo6VC3O0s-21" value="Transação" style="swimlane;fontStyle=1;align=center;verticalAlign=top;childLayout=stackLayout;horizontal=1;startSize=26;horizontalStack=0;resizeParent=1;resizeParentMax=0;resizeLast=0;collapsible=1;marginBottom=0;whiteSpace=wrap;html=1;" parent="1" vertex="1">
          <mxGeometry x="600" y="124" width="160" height="120" as="geometry" />
        </mxCell>
        <mxCell id="FMgXJBMxYUzyo6VC3O0s-22" value="+ Saldo;&lt;br&gt;+ Extrato;" style="text;strokeColor=none;fillColor=none;align=left;verticalAlign=top;spacingLeft=4;spacingRight=4;overflow=hidden;rotatable=0;points=[[0,0.5],[1,0.5]];portConstraint=eastwest;whiteSpace=wrap;html=1;" parent="FMgXJBMxYUzyo6VC3O0s-21" vertex="1">
          <mxGeometry y="26" width="160" height="44" as="geometry" />
        </mxCell>
        <mxCell id="FMgXJBMxYUzyo6VC3O0s-23" value="" style="line;strokeWidth=1;fillColor=none;align=left;verticalAlign=middle;spacingTop=-1;spacingLeft=3;spacingRight=3;rotatable=0;labelPosition=right;points=[];portConstraint=eastwest;strokeColor=inherit;" parent="FMgXJBMxYUzyo6VC3O0s-21" vertex="1">
          <mxGeometry y="70" width="160" height="8" as="geometry" />
        </mxCell>
        <mxCell id="FMgXJBMxYUzyo6VC3O0s-24" value="+ atualizar();&lt;br&gt;+ gravar();" style="text;strokeColor=none;fillColor=none;align=left;verticalAlign=top;spacingLeft=4;spacingRight=4;overflow=hidden;rotatable=0;points=[[0,0.5],[1,0.5]];portConstraint=eastwest;whiteSpace=wrap;html=1;" parent="FMgXJBMxYUzyo6VC3O0s-21" vertex="1">
          <mxGeometry y="78" width="160" height="42" as="geometry" />
        </mxCell>
        <mxCell id="FMgXJBMxYUzyo6VC3O0s-25" value="Saldo" style="swimlane;fontStyle=1;align=center;verticalAlign=top;childLayout=stackLayout;horizontal=1;startSize=26;horizontalStack=0;resizeParent=1;resizeParentMax=0;resizeLast=0;collapsible=1;marginBottom=0;whiteSpace=wrap;html=1;" parent="1" vertex="1">
          <mxGeometry x="600" y="298" width="160" height="170" as="geometry" />
        </mxCell>
        <mxCell id="FMgXJBMxYUzyo6VC3O0s-26" value="+ SaldoConta;" style="text;strokeColor=none;fillColor=none;align=left;verticalAlign=top;spacingLeft=4;spacingRight=4;overflow=hidden;rotatable=0;points=[[0,0.5],[1,0.5]];portConstraint=eastwest;whiteSpace=wrap;html=1;" parent="FMgXJBMxYUzyo6VC3O0s-25" vertex="1">
          <mxGeometry y="26" width="160" height="34" as="geometry" />
        </mxCell>
        <mxCell id="FMgXJBMxYUzyo6VC3O0s-27" value="" style="line;strokeWidth=1;fillColor=none;align=left;verticalAlign=middle;spacingTop=-1;spacingLeft=3;spacingRight=3;rotatable=0;labelPosition=right;points=[];portConstraint=eastwest;strokeColor=inherit;" parent="FMgXJBMxYUzyo6VC3O0s-25" vertex="1">
          <mxGeometry y="60" width="160" height="8" as="geometry" />
        </mxCell>
        <mxCell id="FMgXJBMxYUzyo6VC3O0s-28" value="+ mostrar();&lt;br&gt;+ sacar();&lt;br&gt;+ transferir();&lt;br&gt;+ depositar();&lt;br&gt;+ gerarExtrato();&lt;br&gt;+ consultarSaldo();" style="text;strokeColor=none;fillColor=none;align=left;verticalAlign=top;spacingLeft=4;spacingRight=4;overflow=hidden;rotatable=0;points=[[0,0.5],[1,0.5]];portConstraint=eastwest;whiteSpace=wrap;html=1;" parent="FMgXJBMxYUzyo6VC3O0s-25" vertex="1">
          <mxGeometry y="68" width="160" height="102" as="geometry" />
        </mxCell>
        <mxCell id="FMgXJBMxYUzyo6VC3O0s-30" value="Extrato" style="swimlane;fontStyle=1;align=center;verticalAlign=top;childLayout=stackLayout;horizontal=1;startSize=26;horizontalStack=0;resizeParent=1;resizeParentMax=0;resizeLast=0;collapsible=1;marginBottom=0;whiteSpace=wrap;html=1;" parent="1" vertex="1">
          <mxGeometry x="360" y="550" width="160" height="100" as="geometry" />
        </mxCell>
        <mxCell id="FMgXJBMxYUzyo6VC3O0s-31" value="+ Extrato;" style="text;strokeColor=none;fillColor=none;align=left;verticalAlign=top;spacingLeft=4;spacingRight=4;overflow=hidden;rotatable=0;points=[[0,0.5],[1,0.5]];portConstraint=eastwest;whiteSpace=wrap;html=1;" parent="FMgXJBMxYUzyo6VC3O0s-30" vertex="1">
          <mxGeometry y="26" width="160" height="26" as="geometry" />
        </mxCell>
        <mxCell id="FMgXJBMxYUzyo6VC3O0s-32" value="" style="line;strokeWidth=1;fillColor=none;align=left;verticalAlign=middle;spacingTop=-1;spacingLeft=3;spacingRight=3;rotatable=0;labelPosition=right;points=[];portConstraint=eastwest;strokeColor=inherit;" parent="FMgXJBMxYUzyo6VC3O0s-30" vertex="1">
          <mxGeometry y="52" width="160" height="8" as="geometry" />
        </mxCell>
        <mxCell id="FMgXJBMxYUzyo6VC3O0s-33" value="+ mostrarTransacoes();&lt;br&gt;+ mostrarPorPeriodo();" style="text;strokeColor=none;fillColor=none;align=left;verticalAlign=top;spacingLeft=4;spacingRight=4;overflow=hidden;rotatable=0;points=[[0,0.5],[1,0.5]];portConstraint=eastwest;whiteSpace=wrap;html=1;" parent="FMgXJBMxYUzyo6VC3O0s-30" vertex="1">
          <mxGeometry y="60" width="160" height="40" as="geometry" />
        </mxCell>
        <mxCell id="FMgXJBMxYUzyo6VC3O0s-34" value="Pix" style="swimlane;fontStyle=1;align=center;verticalAlign=top;childLayout=stackLayout;horizontal=1;startSize=26;horizontalStack=0;resizeParent=1;resizeParentMax=0;resizeLast=0;collapsible=1;marginBottom=0;whiteSpace=wrap;html=1;" parent="1" vertex="1">
          <mxGeometry x="570" y="550" width="160" height="120" as="geometry" />
        </mxCell>
        <mxCell id="FMgXJBMxYUzyo6VC3O0s-35" value="+&amp;nbsp;" style="text;strokeColor=none;fillColor=none;align=left;verticalAlign=top;spacingLeft=4;spacingRight=4;overflow=hidden;rotatable=0;points=[[0,0.5],[1,0.5]];portConstraint=eastwest;whiteSpace=wrap;html=1;" parent="FMgXJBMxYUzyo6VC3O0s-34" vertex="1">
          <mxGeometry y="26" width="160" height="26" as="geometry" />
        </mxCell>
        <mxCell id="FMgXJBMxYUzyo6VC3O0s-36" value="" style="line;strokeWidth=1;fillColor=none;align=left;verticalAlign=middle;spacingTop=-1;spacingLeft=3;spacingRight=3;rotatable=0;labelPosition=right;points=[];portConstraint=eastwest;strokeColor=inherit;" parent="FMgXJBMxYUzyo6VC3O0s-34" vertex="1">
          <mxGeometry y="52" width="160" height="8" as="geometry" />
        </mxCell>
        <mxCell id="FMgXJBMxYUzyo6VC3O0s-37" value="+ conferir();&lt;br&gt;+ enviar(Saldo.transferir);&lt;br&gt;+ sacar(Saldo.sacar);" style="text;strokeColor=none;fillColor=none;align=left;verticalAlign=top;spacingLeft=4;spacingRight=4;overflow=hidden;rotatable=0;points=[[0,0.5],[1,0.5]];portConstraint=eastwest;whiteSpace=wrap;html=1;" parent="FMgXJBMxYUzyo6VC3O0s-34" vertex="1">
          <mxGeometry y="60" width="160" height="60" as="geometry" />
        </mxCell>
        <mxCell id="FMgXJBMxYUzyo6VC3O0s-42" value="Emprestimo" style="swimlane;fontStyle=1;align=center;verticalAlign=top;childLayout=stackLayout;horizontal=1;startSize=26;horizontalStack=0;resizeParent=1;resizeParentMax=0;resizeLast=0;collapsible=1;marginBottom=0;whiteSpace=wrap;html=1;" parent="1" vertex="1">
          <mxGeometry x="860" y="160" width="180" height="120" as="geometry" />
        </mxCell>
        <mxCell id="FMgXJBMxYUzyo6VC3O0s-43" value="+ field: type" style="text;strokeColor=none;fillColor=none;align=left;verticalAlign=top;spacingLeft=4;spacingRight=4;overflow=hidden;rotatable=0;points=[[0,0.5],[1,0.5]];portConstraint=eastwest;whiteSpace=wrap;html=1;" parent="FMgXJBMxYUzyo6VC3O0s-42" vertex="1">
          <mxGeometry y="26" width="180" height="26" as="geometry" />
        </mxCell>
        <mxCell id="FMgXJBMxYUzyo6VC3O0s-44" value="" style="line;strokeWidth=1;fillColor=none;align=left;verticalAlign=middle;spacingTop=-1;spacingLeft=3;spacingRight=3;rotatable=0;labelPosition=right;points=[];portConstraint=eastwest;strokeColor=inherit;" parent="FMgXJBMxYUzyo6VC3O0s-42" vertex="1">
          <mxGeometry y="52" width="180" height="8" as="geometry" />
        </mxCell>
        <mxCell id="FMgXJBMxYUzyo6VC3O0s-45" value="+ consultar();&lt;br&gt;+ contratar(Saldo.depositar);" style="text;strokeColor=none;fillColor=none;align=left;verticalAlign=top;spacingLeft=4;spacingRight=4;overflow=hidden;rotatable=0;points=[[0,0.5],[1,0.5]];portConstraint=eastwest;whiteSpace=wrap;html=1;" parent="FMgXJBMxYUzyo6VC3O0s-42" vertex="1">
          <mxGeometry y="60" width="180" height="60" as="geometry" />
        </mxCell>
        <mxCell id="FMgXJBMxYUzyo6VC3O0s-46" value="Cartão Débito" style="swimlane;fontStyle=1;align=center;verticalAlign=top;childLayout=stackLayout;horizontal=1;startSize=26;horizontalStack=0;resizeParent=1;resizeParentMax=0;resizeLast=0;collapsible=1;marginBottom=0;whiteSpace=wrap;html=1;" parent="1" vertex="1">
          <mxGeometry x="790" y="550" width="160" height="120" as="geometry" />
        </mxCell>
        <mxCell id="FMgXJBMxYUzyo6VC3O0s-47" value="+ numeroCartao;" style="text;strokeColor=none;fillColor=none;align=left;verticalAlign=top;spacingLeft=4;spacingRight=4;overflow=hidden;rotatable=0;points=[[0,0.5],[1,0.5]];portConstraint=eastwest;whiteSpace=wrap;html=1;" parent="FMgXJBMxYUzyo6VC3O0s-46" vertex="1">
          <mxGeometry y="26" width="160" height="26" as="geometry" />
        </mxCell>
        <mxCell id="FMgXJBMxYUzyo6VC3O0s-48" value="" style="line;strokeWidth=1;fillColor=none;align=left;verticalAlign=middle;spacingTop=-1;spacingLeft=3;spacingRight=3;rotatable=0;labelPosition=right;points=[];portConstraint=eastwest;strokeColor=inherit;" parent="FMgXJBMxYUzyo6VC3O0s-46" vertex="1">
          <mxGeometry y="52" width="160" height="8" as="geometry" />
        </mxCell>
        <mxCell id="FMgXJBMxYUzyo6VC3O0s-49" value="+ criar();&lt;br&gt;+ sacar(Saldo.sacar);&lt;br&gt;+ consultarCartao();" style="text;strokeColor=none;fillColor=none;align=left;verticalAlign=top;spacingLeft=4;spacingRight=4;overflow=hidden;rotatable=0;points=[[0,0.5],[1,0.5]];portConstraint=eastwest;whiteSpace=wrap;html=1;" parent="FMgXJBMxYUzyo6VC3O0s-46" vertex="1">
          <mxGeometry y="60" width="160" height="60" as="geometry" />
        </mxCell>
        <mxCell id="FMgXJBMxYUzyo6VC3O0s-50" value="Pagamentos" style="swimlane;fontStyle=1;align=center;verticalAlign=top;childLayout=stackLayout;horizontal=1;startSize=26;horizontalStack=0;resizeParent=1;resizeParentMax=0;resizeLast=0;collapsible=1;marginBottom=0;whiteSpace=wrap;html=1;" parent="1" vertex="1">
          <mxGeometry x="870" y="330" width="160" height="86" as="geometry" />
        </mxCell>
        <mxCell id="FMgXJBMxYUzyo6VC3O0s-51" value="+ field: type" style="text;strokeColor=none;fillColor=none;align=left;verticalAlign=top;spacingLeft=4;spacingRight=4;overflow=hidden;rotatable=0;points=[[0,0.5],[1,0.5]];portConstraint=eastwest;whiteSpace=wrap;html=1;" parent="FMgXJBMxYUzyo6VC3O0s-50" vertex="1">
          <mxGeometry y="26" width="160" height="26" as="geometry" />
        </mxCell>
        <mxCell id="FMgXJBMxYUzyo6VC3O0s-52" value="" style="line;strokeWidth=1;fillColor=none;align=left;verticalAlign=middle;spacingTop=-1;spacingLeft=3;spacingRight=3;rotatable=0;labelPosition=right;points=[];portConstraint=eastwest;strokeColor=inherit;" parent="FMgXJBMxYUzyo6VC3O0s-50" vertex="1">
          <mxGeometry y="52" width="160" height="8" as="geometry" />
        </mxCell>
        <mxCell id="FMgXJBMxYUzyo6VC3O0s-53" value="+ sacar(Saldo.sacar);" style="text;strokeColor=none;fillColor=none;align=left;verticalAlign=top;spacingLeft=4;spacingRight=4;overflow=hidden;rotatable=0;points=[[0,0.5],[1,0.5]];portConstraint=eastwest;whiteSpace=wrap;html=1;" parent="FMgXJBMxYUzyo6VC3O0s-50" vertex="1">
          <mxGeometry y="60" width="160" height="26" as="geometry" />
        </mxCell>
        <mxCell id="FMgXJBMxYUzyo6VC3O0s-58" value="" style="endArrow=block;endSize=16;endFill=0;html=1;rounded=0;exitX=0.49;exitY=0.99;exitDx=0;exitDy=0;exitPerimeter=0;" parent="1" source="FMgXJBMxYUzyo6VC3O0s-16" target="FMgXJBMxYUzyo6VC3O0s-17" edge="1">
          <mxGeometry width="160" relative="1" as="geometry">
            <mxPoint x="387" y="350" as="sourcePoint" />
            <mxPoint x="547" y="350" as="targetPoint" />
          </mxGeometry>
        </mxCell>
        <mxCell id="FMgXJBMxYUzyo6VC3O0s-59" value="" style="endArrow=open;html=1;endSize=12;startArrow=diamondThin;startSize=14;startFill=0;edgeStyle=orthogonalEdgeStyle;rounded=0;entryX=-0.005;entryY=0.795;entryDx=0;entryDy=0;entryPerimeter=0;" parent="1" target="FMgXJBMxYUzyo6VC3O0s-18" edge="1">
          <mxGeometry x="0.0031" relative="1" as="geometry">
            <mxPoint x="210" y="371" as="sourcePoint" />
            <mxPoint x="370" y="371" as="targetPoint" />
            <mxPoint as="offset" />
          </mxGeometry>
        </mxCell>
        <mxCell id="FMgXJBMxYUzyo6VC3O0s-64" value="" style="endArrow=block;endSize=16;endFill=0;html=1;rounded=0;entryX=0.5;entryY=0;entryDx=0;entryDy=0;exitX=0.503;exitY=1.043;exitDx=0;exitDy=0;exitPerimeter=0;" parent="1" source="FMgXJBMxYUzyo6VC3O0s-24" target="FMgXJBMxYUzyo6VC3O0s-25" edge="1">
          <mxGeometry width="160" relative="1" as="geometry">
            <mxPoint x="680" y="254" as="sourcePoint" />
            <mxPoint x="680.5" y="272" as="targetPoint" />
          </mxGeometry>
        </mxCell>
        <mxCell id="FMgXJBMxYUzyo6VC3O0s-69" value="" style="endArrow=open;html=1;endSize=12;startArrow=diamondThin;startSize=14;startFill=0;edgeStyle=orthogonalEdgeStyle;rounded=0;exitX=-0.01;exitY=0.827;exitDx=0;exitDy=0;exitPerimeter=0;entryX=0.658;entryY=-0.016;entryDx=0;entryDy=0;entryPerimeter=0;" parent="1" source="FMgXJBMxYUzyo6VC3O0s-28" target="FMgXJBMxYUzyo6VC3O0s-30" edge="1">
          <mxGeometry relative="1" as="geometry">
            <mxPoint x="460" y="470" as="sourcePoint" />
            <mxPoint x="620" y="470" as="targetPoint" />
          </mxGeometry>
        </mxCell>
        <mxCell id="FMgXJBMxYUzyo6VC3O0s-72" value="" style="endArrow=open;html=1;endSize=12;startArrow=diamondThin;startSize=14;startFill=0;edgeStyle=orthogonalEdgeStyle;rounded=0;exitX=0.313;exitY=1.01;exitDx=0;exitDy=0;exitPerimeter=0;" parent="1" source="FMgXJBMxYUzyo6VC3O0s-28" target="FMgXJBMxYUzyo6VC3O0s-34" edge="1">
          <mxGeometry relative="1" as="geometry">
            <mxPoint x="600" y="510" as="sourcePoint" />
            <mxPoint x="760" y="510" as="targetPoint" />
          </mxGeometry>
        </mxCell>
        <mxCell id="FMgXJBMxYUzyo6VC3O0s-74" value="1" style="edgeLabel;resizable=0;html=1;align=right;verticalAlign=top;" parent="FMgXJBMxYUzyo6VC3O0s-72" connectable="0" vertex="1">
          <mxGeometry x="1" relative="1" as="geometry" />
        </mxCell>
        <mxCell id="FMgXJBMxYUzyo6VC3O0s-75" value="" style="endArrow=open;html=1;endSize=12;startArrow=diamondThin;startSize=14;startFill=0;edgeStyle=orthogonalEdgeStyle;rounded=0;exitX=0.806;exitY=1.004;exitDx=0;exitDy=0;exitPerimeter=0;entryX=0.5;entryY=0;entryDx=0;entryDy=0;" parent="1" source="FMgXJBMxYUzyo6VC3O0s-28" target="FMgXJBMxYUzyo6VC3O0s-46" edge="1">
          <mxGeometry x="0.003" y="2" relative="1" as="geometry">
            <mxPoint x="700" y="490" as="sourcePoint" />
            <mxPoint x="860" y="490" as="targetPoint" />
            <mxPoint as="offset" />
          </mxGeometry>
        </mxCell>
        <mxCell id="FMgXJBMxYUzyo6VC3O0s-77" value="1" style="edgeLabel;resizable=0;html=1;align=right;verticalAlign=top;" parent="FMgXJBMxYUzyo6VC3O0s-75" connectable="0" vertex="1">
          <mxGeometry x="1" relative="1" as="geometry" />
        </mxCell>
        <mxCell id="FMgXJBMxYUzyo6VC3O0s-78" value="" style="endArrow=open;html=1;endSize=12;startArrow=diamondThin;startSize=14;startFill=0;edgeStyle=orthogonalEdgeStyle;rounded=0;" parent="1" edge="1">
          <mxGeometry relative="1" as="geometry">
            <mxPoint x="760" y="380" as="sourcePoint" />
            <mxPoint x="870" y="380" as="targetPoint" />
            <Array as="points">
              <mxPoint x="830" y="380" />
              <mxPoint x="830" y="380" />
            </Array>
          </mxGeometry>
        </mxCell>
        <mxCell id="FMgXJBMxYUzyo6VC3O0s-81" value="" style="endArrow=open;html=1;endSize=12;startArrow=diamondThin;startSize=14;startFill=0;edgeStyle=orthogonalEdgeStyle;rounded=0;" parent="1" target="FMgXJBMxYUzyo6VC3O0s-45" edge="1">
          <mxGeometry relative="1" as="geometry">
            <mxPoint x="760" y="310" as="sourcePoint" />
            <mxPoint x="920" y="310" as="targetPoint" />
            <Array as="points">
              <mxPoint x="800" y="310" />
              <mxPoint x="800" y="250" />
            </Array>
          </mxGeometry>
        </mxCell>
        <mxCell id="FMgXJBMxYUzyo6VC3O0s-65" value="" style="endArrow=open;html=1;endSize=12;startArrow=diamondThin;startSize=14;startFill=1;edgeStyle=orthogonalEdgeStyle;align=left;verticalAlign=bottom;rounded=0;entryX=-0.015;entryY=0.052;entryDx=0;entryDy=0;entryPerimeter=0;exitX=1.012;exitY=0.685;exitDx=0;exitDy=0;exitPerimeter=0;" parent="1" source="FMgXJBMxYUzyo6VC3O0s-18" target="FMgXJBMxYUzyo6VC3O0s-28" edge="1">
          <mxGeometry x="-1" y="3" relative="1" as="geometry">
            <mxPoint x="510" y="394" as="sourcePoint" />
            <mxPoint x="665" y="394" as="targetPoint" />
          </mxGeometry>
        </mxCell>
        <mxCell id="FMgXJBMxYUzyo6VC3O0s-57" value="" style="endArrow=block;endSize=16;endFill=0;html=1;rounded=0;exitX=0.5;exitY=0;exitDx=0;exitDy=0;entryX=0.494;entryY=1;entryDx=0;entryDy=0;entryPerimeter=0;" parent="1" source="FMgXJBMxYUzyo6VC3O0s-9" target="FMgXJBMxYUzyo6VC3O0s-4" edge="1">
          <mxGeometry width="160" relative="1" as="geometry">
            <mxPoint x="470" y="290" as="sourcePoint" />
            <mxPoint x="630" y="290" as="targetPoint" />
          </mxGeometry>
        </mxCell>
      </root>
    </mxGraphModel>
  </diagram>
</mxfile>
